<svg xmlns="http://www.w3.org/2000/svg" viewBox="0 0 32 32" fill="none" aria-hidden="true">
  <!-- v8: circular ring, outer stars smaller, clearer threads -->
  <path d="M16.9 4.8 L21.0 5.5 M21.0 5.5 L24.2 8.4 M24.2 8.4 L26.7 11.6 M26.7 11.6 L27.7 15.9 M27.7 15.9 L26.5 19.9 M26.5 19.9 L24.6 23.7 M24.6 23.7 L21.2 25.9 M21.2 25.9 L17.1 27.5 M17.1 27.5 L13.1 26.9 M13.1 26.9 L9.1 25.4 M9.1 25.4 L6.6 22.0 M6.6 22.0 L4.6 18.1 M4.6 18.1 L4.5 14.0 M4.5 14.0 L6.4 10.1 M6.4 10.1 L8.9 6.9 M8.9 6.9 L12.8 5.3 M12.8 5.3 L16.9 4.8 M16.9 4.8 L24.2 8.4 M21.0 5.5 L26.7 11.6 M24.2 8.4 L27.7 15.9 M26.7 11.6 L26.5 19.9 M27.7 15.9 L24.6 23.7 M26.5 19.9 L21.2 25.9 M24.6 23.7 L17.1 27.5 M21.2 25.9 L13.1 26.9 M17.1 27.5 L9.1 25.4 M13.1 26.9 L6.6 22.0 M9.1 25.4 L4.6 18.1 M6.6 22.0 L4.5 14.0 M4.6 18.1 L6.4 10.1 M4.5 14.0 L8.9 6.9 M6.4 10.1 L12.8 5.3 M8.9 6.9 L16.9 4.8 M12.8 5.3 L21.0 5.5 M16.9 4.8 L26.7 11.6 M21.0 5.5 L27.7 15.9 M24.2 8.4 L26.5 19.9 M26.7 11.6 L24.6 23.7 M27.7 15.9 L21.2 25.9 M26.5 19.9 L17.1 27.5 M24.6 23.7 L13.1 26.9 M21.2 25.9 L9.1 25.4 M17.1 27.5 L6.6 22.0 M13.1 26.9 L4.6 18.1 M9.1 25.4 L4.5 14.0 M6.6 22.0 L6.4 10.1 M4.6 18.1 L8.9 6.9 M4.5 14.0 L12.8 5.3 M6.4 10.1 L16.9 4.8 M8.9 6.9 L21.0 5.5 M12.8 5.3 L24.2 8.4 M16.9 4.8 L27.7 15.9 M21.0 5.5 L26.5 19.9 M24.2 8.4 L24.6 23.7 M26.7 11.6 L21.2 25.9 M27.7 15.9 L17.1 27.5 M26.5 19.9 L13.1 26.9 M24.6 23.7 L9.1 25.4 M21.2 25.9 L6.6 22.0 M17.1 27.5 L4.6 18.1 M13.1 26.9 L4.5 14.0 M9.1 25.4 L6.4 10.1 M6.6 22.0 L8.9 6.9 M4.6 18.1 L12.8 5.3 M4.5 14.0 L16.9 4.8 M6.4 10.1 L21.0 5.5 M8.9 6.9 L24.2 8.4 M12.8 5.3 L26.7 11.6" stroke="#94A3B8" stroke-width="0.28" stroke-linecap="round" opacity="0.52" />
  <circle cx="16" cy="16" r="5.2" fill="#F8FAFC" opacity="0.14" />
  <circle cx="16" cy="16" r="3.75" fill="#F1F5F9" opacity="0.26" />
  <circle cx="16" cy="16" r="2.35" fill="#FFFFFF" opacity="0.88" />
  <circle cx="16" cy="16" r="1.1" fill="#FFFFFF" opacity="0.98" />
  <g fill="#FFFFFF">
  <circle cx="16.9" cy="4.8" r="1.9" opacity="0.38"/><circle cx="16.9" cy="4.8" r="1.0" opacity="0.96"/>
  <circle cx="21.0" cy="5.5" r="1.6" opacity="0.38"/><circle cx="21.0" cy="5.5" r="0.9" opacity="0.96"/>
  <circle cx="24.2" cy="8.4" r="2.0" opacity="0.38"/><circle cx="24.2" cy="8.4" r="1.1" opacity="0.96"/>
  <circle cx="26.7" cy="11.6" r="1.6" opacity="0.38"/><circle cx="26.7" cy="11.6" r="0.9" opacity="0.96"/>
  <circle cx="27.7" cy="15.9" r="1.5" opacity="0.38"/><circle cx="27.7" cy="15.9" r="0.8" opacity="0.96"/>
  <circle cx="26.5" cy="19.9" r="1.9" opacity="0.38"/><circle cx="26.5" cy="19.9" r="1.1" opacity="0.96"/>
  <circle cx="24.6" cy="23.7" r="1.7" opacity="0.38"/><circle cx="24.6" cy="23.7" r="0.9" opacity="0.96"/>
  <circle cx="21.2" cy="25.9" r="2.0" opacity="0.38"/><circle cx="21.2" cy="25.9" r="1.1" opacity="0.96"/>
  <circle cx="17.1" cy="27.5" r="1.6" opacity="0.38"/><circle cx="17.1" cy="27.5" r="0.9" opacity="0.96"/>
  <circle cx="13.1" cy="26.9" r="1.9" opacity="0.38"/><circle cx="13.1" cy="26.9" r="1.0" opacity="0.96"/>
  <circle cx="9.1" cy="25.4" r="1.5" opacity="0.38"/><circle cx="9.1" cy="25.4" r="0.9" opacity="0.96"/>
  <circle cx="6.6" cy="22.0" r="1.9" opacity="0.38"/><circle cx="6.6" cy="22.0" r="1.1" opacity="0.96"/>
  <circle cx="4.6" cy="18.1" r="1.6" opacity="0.38"/><circle cx="4.6" cy="18.1" r="0.9" opacity="0.96"/>
  <circle cx="4.5" cy="14.0" r="1.6" opacity="0.38"/><circle cx="4.5" cy="14.0" r="0.9" opacity="0.96"/>
  <circle cx="6.4" cy="10.1" r="1.9" opacity="0.38"/><circle cx="6.4" cy="10.1" r="1.0" opacity="0.96"/>
  <circle cx="8.9" cy="6.9" r="1.7" opacity="0.38"/><circle cx="8.9" cy="6.9" r="0.9" opacity="0.96"/>
  <circle cx="12.8" cy="5.3" r="1.9" opacity="0.38"/><circle cx="12.8" cy="5.3" r="1.1" opacity="0.96"/>
  </g>
</svg>
