<svg xmlns="http://www.w3.org/2000/svg" viewBox="0 0 32 32" fill="none" aria-hidden="true">
  <!-- Midnight medallion favicon -->
  <circle cx="16" cy="16" r="15" fill="#1A1B2E" />
  <path d="M16.8 5.9 L20.5 6.5 M20.5 6.5 L23.4 9.2 M23.4 9.2 L25.6 12.1 M25.6 12.1 L26.5 15.9 M26.5 15.9 L25.5 19.5 M25.5 19.5 L23.7 22.9 M23.7 22.9 L20.7 24.9 M20.7 24.9 L17.0 26.4 M17.0 26.4 L13.4 25.8 M13.4 25.8 L9.7 24.4 M9.7 24.4 L7.5 21.4 M7.5 21.4 L5.8 17.9 M5.8 17.9 L5.7 14.2 M5.7 14.2 L7.4 10.7 M7.4 10.7 L9.6 7.8 M9.6 7.8 L13.2 6.3 M13.2 6.3 L16.8 5.9 M16.8 5.9 L23.4 9.2 M20.5 6.5 L25.6 12.1 M23.4 9.2 L26.5 15.9 M25.6 12.1 L25.5 19.5 M26.5 15.9 L23.7 22.9 M25.5 19.5 L20.7 24.9 M23.7 22.9 L17.0 26.4 M20.7 24.9 L13.4 25.8 M17.0 26.4 L9.7 24.4 M13.4 25.8 L7.5 21.4 M9.7 24.4 L5.8 17.9 M7.5 21.4 L5.7 14.2 M5.8 17.9 L7.4 10.7 M5.7 14.2 L9.6 7.8 M7.4 10.7 L13.2 6.3 M9.6 7.8 L16.8 5.9 M13.2 6.3 L20.5 6.5 M16.8 5.9 L25.6 12.1 M20.5 6.5 L26.5 15.9 M23.4 9.2 L25.5 19.5 M25.6 12.1 L23.7 22.9 M26.5 15.9 L20.7 24.9 M25.5 19.5 L17.0 26.4 M23.7 22.9 L13.4 25.8 M20.7 24.9 L9.7 24.4 M17.0 26.4 L7.5 21.4 M13.4 25.8 L5.8 17.9 M9.7 24.4 L5.7 14.2 M7.5 21.4 L7.4 10.7 M5.8 17.9 L9.6 7.8 M5.7 14.2 L13.2 6.3 M7.4 10.7 L16.8 5.9 M9.6 7.8 L20.5 6.5 M13.2 6.3 L23.4 9.2 M16.8 5.9 L26.5 15.9 M20.5 6.5 L25.5 19.5 M23.4 9.2 L23.7 22.9 M25.6 12.1 L20.7 24.9 M26.5 15.9 L17.0 26.4 M25.5 19.5 L13.4 25.8 M23.7 22.9 L9.7 24.4 M20.7 24.9 L7.5 21.4 M17.0 26.4 L5.8 17.9 M13.4 25.8 L5.7 14.2 M9.7 24.4 L7.4 10.7 M7.5 21.4 L9.6 7.8 M5.8 17.9 L13.2 6.3 M5.7 14.2 L16.8 5.9 M7.4 10.7 L20.5 6.5 M9.6 7.8 L23.4 9.2 M13.2 6.3 L25.6 12.1" stroke="#94A3B8" stroke-width="0.26" stroke-linecap="round" opacity="0.68" />
  <circle cx="16" cy="16" r="4.6" fill="#FFFFFF" opacity="0.12" />
  <circle cx="16" cy="16" r="3.25" fill="#FFFFFF" opacity="0.22" />
  <circle cx="16" cy="16" r="2" fill="#FFFFFF" opacity="0.9" />
  <circle cx="16" cy="16" r="0.95" fill="#FFFFFF" opacity="0.98" />
  <g fill="#FFFFFF">
  <circle cx="16.8" cy="5.9" r="1.7" opacity="0.35"/><circle cx="16.8" cy="5.9" r="0.9" opacity="0.96"/>
  <circle cx="20.5" cy="6.5" r="1.4" opacity="0.35"/><circle cx="20.5" cy="6.5" r="0.8" opacity="0.96"/>
  <circle cx="23.4" cy="9.2" r="1.7" opacity="0.35"/><circle cx="23.4" cy="9.2" r="1.0" opacity="0.96"/>
  <circle cx="25.6" cy="12.1" r="1.4" opacity="0.35"/><circle cx="25.6" cy="12.1" r="0.8" opacity="0.96"/>
  <circle cx="26.5" cy="15.9" r="1.3" opacity="0.35"/><circle cx="26.5" cy="15.9" r="0.7" opacity="0.96"/>
  <circle cx="25.5" cy="19.5" r="1.7" opacity="0.35"/><circle cx="25.5" cy="19.5" r="0.9" opacity="0.96"/>
  <circle cx="23.7" cy="22.9" r="1.5" opacity="0.35"/><circle cx="23.7" cy="22.9" r="0.8" opacity="0.96"/>
  <circle cx="20.7" cy="24.9" r="1.7" opacity="0.35"/><circle cx="20.7" cy="24.9" r="0.9" opacity="0.96"/>
  <circle cx="17.0" cy="26.4" r="1.4" opacity="0.35"/><circle cx="17.0" cy="26.4" r="0.8" opacity="0.96"/>
  <circle cx="13.4" cy="25.8" r="1.6" opacity="0.35"/><circle cx="13.4" cy="25.8" r="0.9" opacity="0.96"/>
  <circle cx="9.7" cy="24.4" r="1.4" opacity="0.35"/><circle cx="9.7" cy="24.4" r="0.7" opacity="0.96"/>
  <circle cx="7.5" cy="21.4" r="1.7" opacity="0.35"/><circle cx="7.5" cy="21.4" r="0.9" opacity="0.96"/>
  <circle cx="5.8" cy="17.9" r="1.4" opacity="0.35"/><circle cx="5.8" cy="17.9" r="0.8" opacity="0.96"/>
  <circle cx="5.7" cy="14.2" r="1.4" opacity="0.35"/><circle cx="5.7" cy="14.2" r="0.8" opacity="0.96"/>
  <circle cx="7.4" cy="10.7" r="1.7" opacity="0.35"/><circle cx="7.4" cy="10.7" r="0.9" opacity="0.96"/>
  <circle cx="9.6" cy="7.8" r="1.5" opacity="0.35"/><circle cx="9.6" cy="7.8" r="0.8" opacity="0.96"/>
  <circle cx="13.2" cy="6.3" r="1.7" opacity="0.35"/><circle cx="13.2" cy="6.3" r="0.9" opacity="0.96"/>
  </g>
</svg>
